<svg width="19" height="18" viewBox="0 0 19 18" fill="none" xmlns="http://www.w3.org/2000/svg">
<path d="M5.64296 8.6785C5.46544 8.6785 5.32153 8.53459 5.32153 8.35707C5.32153 8.17955 5.46544 8.03564 5.64296 8.03564" stroke="#345976" stroke-width="2" stroke-linecap="round" stroke-linejoin="round"/>
<path d="M5.64294 8.6785C5.82046 8.6785 5.96437 8.53459 5.96437 8.35707C5.96437 8.17955 5.82046 8.03564 5.64294 8.03564" stroke="#345976" stroke-width="2" stroke-linecap="round" stroke-linejoin="round"/>
<path d="M9.50002 8.6785C9.3225 8.6785 9.17859 8.53459 9.17859 8.35707C9.17859 8.17955 9.3225 8.03564 9.50002 8.03564" stroke="#345976" stroke-width="2" stroke-linecap="round" stroke-linejoin="round"/>
<path d="M9.5 8.6785C9.67752 8.6785 9.82143 8.53459 9.82143 8.35707C9.82143 8.17955 9.67752 8.03564 9.5 8.03564" stroke="#345976" stroke-width="2" stroke-linecap="round" stroke-linejoin="round"/>
<path d="M5.64296 13.1785C5.46544 13.1785 5.32153 13.0346 5.32153 12.8571C5.32153 12.6796 5.46544 12.5356 5.64296 12.5356" stroke="#345976" stroke-width="2" stroke-linecap="round" stroke-linejoin="round"/>
<path d="M5.64294 13.1785C5.82046 13.1785 5.96437 13.0346 5.96437 12.8571C5.96437 12.6796 5.82046 12.5356 5.64294 12.5356" stroke="#345976" stroke-width="2" stroke-linecap="round" stroke-linejoin="round"/>
<path d="M9.50002 13.1785C9.3225 13.1785 9.17859 13.0346 9.17859 12.8571C9.17859 12.6796 9.3225 12.5356 9.50002 12.5356" stroke="#345976" stroke-width="2" stroke-linecap="round" stroke-linejoin="round"/>
<path d="M9.5 13.1785C9.67752 13.1785 9.82143 13.0346 9.82143 12.8571C9.82143 12.6796 9.67752 12.5356 9.5 12.5356" stroke="#345976" stroke-width="2" stroke-linecap="round" stroke-linejoin="round"/>
<path d="M13.3572 8.6785C13.1797 8.6785 13.0358 8.53459 13.0358 8.35707C13.0358 8.17955 13.1797 8.03564 13.3572 8.03564" stroke="#345976" stroke-width="2" stroke-linecap="round" stroke-linejoin="round"/>
<path d="M13.3572 8.6785C13.5347 8.6785 13.6786 8.53459 13.6786 8.35707C13.6786 8.17955 13.5347 8.03564 13.3572 8.03564" stroke="#345976" stroke-width="2" stroke-linecap="round" stroke-linejoin="round"/>
<path d="M3.07148 3.21411C2.73048 3.21411 2.40346 3.34957 2.16234 3.59068C1.92123 3.83181 1.78577 4.15883 1.78577 4.49983V15.4284C1.78577 15.7694 1.92123 16.0965 2.16234 16.3375C2.40346 16.5786 2.73048 16.7141 3.07148 16.7141H15.9286C16.2696 16.7141 16.5967 16.5786 16.8378 16.3375C17.0788 16.0965 17.2143 15.7694 17.2143 15.4284V4.49983C17.2143 4.15883 17.0788 3.83181 16.8378 3.59068C16.5967 3.34957 16.2696 3.21411 15.9286 3.21411H3.07148Z" stroke="#345976" stroke-width="2" stroke-linecap="round" stroke-linejoin="round"/>
<path d="M5 1.28564V5.14279" stroke="#345976" stroke-width="2" stroke-linecap="round" stroke-linejoin="round"/>
<path d="M14 1.28564V5.14279" stroke="#345976" stroke-width="2" stroke-linecap="round" stroke-linejoin="round"/>
</svg>
