<svg width="23" height="22" viewBox="0 0 23 22" fill="none" xmlns="http://www.w3.org/2000/svg">
<path d="M0.543457 11C0.543457 13.9058 1.6978 16.6927 3.75255 18.7474C5.80729 20.8022 8.59413 21.9565 11.5 21.9565C14.4058 21.9565 17.1927 20.8022 19.2474 18.7474C21.3022 16.6927 22.4565 13.9058 22.4565 11C22.4565 8.09413 21.3022 5.30729 19.2474 3.25255C17.1927 1.1978 14.4058 0.043457 11.5 0.043457C8.59413 0.043457 5.80729 1.1978 3.75255 3.25255C1.6978 5.30729 0.543457 8.09413 0.543457 11Z" fill="#238854"/>
<path fill-rule="evenodd" clip-rule="evenodd" d="M12.6738 6.30435C12.6738 5.993 12.5502 5.69441 12.33 5.47426C12.1099 5.25411 11.8113 5.13043 11.4999 5.13043C11.1886 5.13043 10.89 5.25411 10.6699 5.47426C10.4497 5.69441 10.326 5.993 10.326 6.30435V9.82608H6.80428C6.49294 9.82608 6.19435 9.94976 5.9742 10.1699C5.75405 10.3901 5.63037 10.6887 5.63037 11C5.63037 11.3113 5.75405 11.6099 5.9742 11.8301C6.19435 12.0502 6.49294 12.1739 6.80428 12.1739H10.326V15.6956C10.326 16.007 10.4497 16.3056 10.6699 16.5257C10.89 16.7459 11.1886 16.8696 11.4999 16.8696C11.8113 16.8696 12.1099 16.7459 12.33 16.5257C12.5502 16.3056 12.6738 16.007 12.6738 15.6956V12.1739H16.1956C16.5069 12.1739 16.8055 12.0502 17.0257 11.8301C17.2458 11.6099 17.3695 11.3113 17.3695 11C17.3695 10.6887 17.2458 10.3901 17.0257 10.1699C16.8055 9.94976 16.5069 9.82608 16.1956 9.82608H12.6738V6.30435Z" fill="white"/>
</svg>
