<svg width="26" height="8" viewBox="0 0 26 8" fill="none" xmlns="http://www.w3.org/2000/svg">
<path d="M1.44786 3.5C1.17172 3.5 0.947863 3.72386 0.947863 4C0.947863 4.27614 1.17172 4.5 1.44786 4.5V3.5ZM25.085 4.35355C25.2803 4.15829 25.2803 3.84171 25.085 3.64645L21.903 0.464466C21.7078 0.269204 21.3912 0.269204 21.1959 0.464466C21.0006 0.659728 21.0006 0.976311 21.1959 1.17157L24.0243 4L21.1959 6.82843C21.0006 7.02369 21.0006 7.34027 21.1959 7.53553C21.3912 7.7308 21.7078 7.7308 21.903 7.53553L25.085 4.35355ZM1.44786 4.5H24.7314V3.5H1.44786V4.5Z" fill="#BFBFBF"/>
</svg>
