<svg width="28" height="28" viewBox="0 0 28 28" fill="none" xmlns="http://www.w3.org/2000/svg">
<path d="M14 24C16.6522 24 19.1957 22.9464 21.0711 21.0711C22.9464 19.1957 24 16.6522 24 14C24 11.3478 22.9464 8.8043 21.0711 6.92893C19.1957 5.05357 16.6522 4 14 4C11.3478 4 8.8043 5.05357 6.92893 6.92893C5.05357 8.8043 4 11.3478 4 14C4 16.6522 5.05357 19.1957 6.92893 21.0711C8.8043 22.9464 11.3478 24 14 24ZM14 9C14.5195 9 14.9375 9.41797 14.9375 9.9375V14.3125C14.9375 14.832 14.5195 15.25 14 15.25C13.4805 15.25 13.0625 14.832 13.0625 14.3125V9.9375C13.0625 9.41797 13.4805 9 14 9ZM12.75 17.75C12.75 17.4185 12.8817 17.1005 13.1161 16.8661C13.3505 16.6317 13.6685 16.5 14 16.5C14.3315 16.5 14.6495 16.6317 14.8839 16.8661C15.1183 17.1005 15.25 17.4185 15.25 17.75C15.25 18.0815 15.1183 18.3995 14.8839 18.6339C14.6495 18.8683 14.3315 19 14 19C13.6685 19 13.3505 18.8683 13.1161 18.6339C12.8817 18.3995 12.75 18.0815 12.75 17.75Z" fill="white"/>
</svg>
